PathFileType	4	(X/Y/Z)	D:\TRACE\v60_Jaco2_6-2-23\BothDRS_Motion1_1-platform.trc
DataRate	CameraRate	NumFrames	NumMarkers	Units	OrigDataRate	OrigDataStartFrame	OrigNumFrames
100.00	100.00	      59	5	mm	100.00	5143	      6857
Frame#	Time	Left_Front			Right_Front			Left_Aft			Right_Aft			Post			
		X1	Y1	Z1	X2	Y2	Z2	X3	Y3	Z3	X4	Y4	Z4	X5	Y5	Z5	

5143	51.420	-805.80444	-2.09455	-640.88000	764.17499	-0.71247	-646.55231	-713.88824	14.90748	493.80994	728.27631	14.61216	503.51825	-19.87217	1291.97998	-984.89441	
5144	51.430	-806.55487	-2.41231	-641.18915	763.40710	-0.96016	-646.68463	-714.83954	15.24548	493.65997	727.46783	14.89791	503.42502	-20.39543	1291.28979	-985.50861	
5145	51.440	-807.69348	-2.46662	-641.63660	762.20197	-1.14850	-646.63153	-715.76941	15.59173	493.50711	726.67621	15.18956	503.24570	-21.38394	1290.86365	-986.33301	
5146	51.450	-808.48810	-2.86371	-641.75305	761.40186	-1.47871	-646.66498	-716.80713	15.88785	493.25424	725.50256	15.43689	503.06805	-22.21266	1290.44348	-987.30597	
5147	51.460	-809.75769	-3.18098	-641.52863	760.16302	-2.07224	-647.00360	-717.75281	16.01257	493.24524	724.75604	15.63278	502.93301	-24.01916	1290.05164	-988.09900	
5148	51.470	-810.54767	-3.64504	-641.52869	759.37427	-2.30736	-646.96631	-718.98090	16.30925	493.23114	723.32239	15.89900	502.86417	-24.70390	1289.37512	-989.19928	
5149	51.480	-811.48615	-4.12016	-642.06219	758.43597	-2.75254	-646.96521	-719.80646	16.54718	493.01382	722.66980	16.17325	502.84250	-25.56040	1288.79468	-990.14526	
5150	51.490	-812.52637	-4.36767	-642.04437	757.38995	-3.25072	-647.19220	-720.54852	16.77642	492.90207	722.04065	16.55939	502.80994	-26.17158	1287.94324	-991.16071	
5151	51.500	-813.50226	-4.56539	-641.89050	756.51971	-3.41782	-647.11224	-721.77063	17.08359	492.80142	720.81152	16.86274	502.80075	-27.35322	1287.69995	-991.67474	
5152	51.510	-814.46143	-5.26992	-641.72522	755.43781	-3.78053	-647.20416	-722.60779	17.35427	492.67294	719.92639	17.10025	502.78647	-28.27350	1287.10596	-992.61963	
5153	51.520	-815.23181	-5.53838	-642.13702	754.64606	-4.08881	-647.24371	-723.62885	17.57566	492.68869	718.70734	17.17093	502.50613	-29.45623	1286.49866	-993.16638	
5154	51.530	-816.11725	-5.91433	-642.15979	753.30292	-4.65219	-647.54321	-724.53479	17.77411	492.69263	717.93341	17.43641	502.47052	-30.13896	1286.10889	-994.00116	
5155	51.540	-817.57391	-6.22164	-642.15131	752.65729	-4.83544	-647.47388	-725.40717	17.92351	492.63849	716.90833	17.84810	502.37964	-31.59346	1285.80127	-994.46478	
5156	51.550	-818.04791	-6.43808	-642.20874	751.63422	-5.11755	-647.51520	-726.45844	18.16791	492.50101	716.00037	17.89249	502.21432	-32.29117	1285.18323	-994.75500	
5157	51.560	-819.16681	-6.70482	-642.27405	750.87408	-5.32840	-647.56616	-727.41174	18.35082	492.41373	715.14417	18.20614	502.20499	-33.26992	1284.63379	-995.60950	
5158	51.570	-820.09625	-7.01759	-642.60083	749.72284	-5.83104	-647.66986	-728.22333	18.67610	492.30789	714.30127	18.29637	502.15457	-34.16135	1284.11121	-996.02246	
5159	51.580	-821.21118	-6.97978	-642.55237	748.78961	-6.10562	-647.66589	-729.37061	18.76149	492.22580	712.93396	18.41984	502.02170	-35.10294	1283.58044	-996.44714	
5160	51.590	-822.04010	-7.75237	-642.34534	747.80908	-6.36818	-647.79633	-730.24133	18.95431	492.03714	712.13324	18.83309	502.13962	-36.05402	1282.98059	-997.61298	
5161	51.600	-822.72919	-7.93233	-642.64893	747.06421	-6.42585	-647.80682	-731.17706	19.25438	491.75000	711.38202	18.93204	502.02640	-36.80584	1282.74878	-997.87744	
5162	51.610	-823.75311	-7.93957	-642.79822	746.12067	-6.63649	-647.97430	-732.25189	19.63542	491.73782	710.48578	19.30635	501.91867	-37.56867	1282.44885	-998.83392	
5163	51.620	-824.94257	-8.32225	-642.69531	745.01038	-6.93362	-647.86353	-733.03760	19.64086	491.71252	709.74847	19.42356	501.74399	-38.72089	1281.88855	-999.45074	
5164	51.630	-825.80286	-9.08657	-642.62122	744.35040	-7.47721	-647.92328	-733.97699	19.96208	491.84427	708.57404	19.50227	501.71286	-39.74070	1281.46558	-1000.43384	
5165	51.640	-826.46826	-9.89545	-642.66022	743.44269	-7.97170	-648.16473	-734.91040	20.34056	491.85501	707.68408	19.81580	501.52789	-40.53551	1280.90747	-1001.06403	
5166	51.650	-827.31329	-10.13248	-642.96667	742.60260	-8.30262	-648.18115	-735.71930	20.49388	491.94922	707.06891	20.05948	501.46451	-40.95574	1280.18457	-1001.29706	
5167	51.660	-828.37329	-9.93252	-642.95447	741.69739	-8.23265	-648.06238	-736.49445	20.73155	491.75839	706.14917	20.18194	501.47403	-42.22660	1279.74219	-1002.38934	
5168	51.670	-829.21912	-9.93266	-642.84705	740.82019	-8.40950	-648.10870	-737.58093	21.06658	491.49313	705.22937	20.47509	501.49170	-43.00277	1279.43811	-1002.89917	
5169	51.680	-830.11389	-10.29062	-642.90625	740.26819	-8.68770	-648.15735	-738.07635	20.79664	491.86942	704.45142	20.48866	501.61392	-44.11401	1279.16992	-1003.71283	
5170	51.690	-830.82880	-10.68583	-642.97803	739.23865	-8.95845	-648.15125	-738.90576	20.96852	491.74915	702.95074	20.70776	501.47421	-44.51599	1278.64648	-1004.21735	
5171	51.700	-831.62628	-10.99319	-643.24976	738.25525	-9.26287	-648.17322	-739.78577	21.09008	491.64099	702.47235	20.81659	501.25922	-45.83735	1278.33875	-1004.61493	
5172	51.710	-832.52405	-11.01877	-643.05719	737.48730	-9.54229	-648.33447	-740.50220	20.97846	491.61716	702.00391	20.94338	501.18295	-46.78954	1278.14160	-1005.10962	
5173	51.720	-833.32880	-11.06780	-643.28711	736.68579	-9.76910	-648.34454	-741.08093	20.83932	491.66153	700.75397	21.12511	501.34705	-47.44530	1278.07886	-1005.57800	
5174	51.730	-834.10352	-11.23629	-643.17664	736.06299	-9.84688	-648.26416	-741.80835	21.12070	491.50220	699.99445	21.38645	501.27197	-47.85142	1277.88611	-1005.85101	
5175	51.740	-834.92419	-11.52896	-643.21429	735.18561	-9.82734	-648.31299	-742.32043	20.85905	491.80420	699.37482	21.37336	501.04596	-49.02750	1277.35864	-1006.41193	
5176	51.750	-835.90582	-11.84189	-643.19208	734.51630	-10.27412	-648.18903	-743.74988	21.85271	491.51111	698.43109	21.57117	500.94531	-49.93441	1277.00073	-1006.44141	
5177	51.760	-836.67883	-11.92062	-643.44427	733.69196	-10.70973	-648.54669	-744.35114	21.76854	491.35486	697.76672	21.69319	500.98175	-50.41118	1276.67517	-1006.62018	
5178	51.770	-837.37012	-11.99538	-643.41962	732.93341	-10.93629	-648.49615	-745.40143	21.91999	491.24902	697.19580	21.95057	501.04510	-50.89619	1276.27759	-1006.80493	
5179	51.780	-837.94263	-12.42875	-643.36090	732.20740	-11.01504	-648.29071	-745.99774	22.08416	491.16821	696.41748	22.04527	500.96875	-51.65642	1275.92041	-1006.98517	
5180	51.790	-838.74286	-12.77243	-643.22980	731.51910	-10.98982	-648.47742	-746.50629	22.36379	491.20169	695.59961	22.24059	501.06094	-52.89589	1275.66992	-1007.23401	
5181	51.800	-839.55725	-12.89480	-643.31409	730.75897	-11.35498	-648.48950	-747.29706	22.38403	491.07245	694.93732	22.31838	500.90594	-53.56328	1275.30176	-1007.87628	
5182	51.810	-840.34302	-13.11609	-643.57507	730.22101	-11.67222	-648.54700	-748.33539	22.51299	490.97839	694.34821	22.31763	500.73318	-53.97778	1274.96545	-1008.48688	
5183	51.820	-840.72131	-13.50261	-643.37213	729.38098	-11.96268	-648.65942	-748.80701	22.52718	490.91220	693.48132	22.41942	500.76627	-54.75399	1274.75781	-1009.28308	
5184	51.830	-841.55731	-13.46698	-643.67371	728.66321	-11.95250	-648.70905	-749.36115	22.71130	490.91086	692.76392	22.68443	500.79770	-55.11343	1274.57190	-1009.90344	
5185	51.840	-842.15009	-13.60498	-643.58630	727.93689	-11.98824	-648.76782	-750.11737	22.93623	491.02618	691.94897	22.70599	500.87164	-55.66212	1274.15283	-1011.12775	
5186	51.850	-842.81390	-13.58793	-643.48260	727.37299	-12.15990	-648.80231	-750.86279	23.13911	491.06061	691.57379	22.67676	500.68524	-56.37145	1274.14404	-1011.48633	
5187	51.860	-843.61853	-13.90156	-643.32251	726.62946	-12.34348	-648.78424	-751.40857	23.18359	491.05322	690.68152	22.80819	500.61032	-57.24828	1273.99451	-1011.82813	
5188	51.870	-844.26514	-14.07588	-643.49713	725.88745	-12.63986	-648.95673	-751.94769	23.01987	490.89905	690.25116	23.04213	500.51526	-57.81178	1273.83801	-1012.01324	
5189	51.880	-844.68542	-14.24128	-643.70258	725.36517	-12.83197	-648.99738	-752.58160	23.19641	490.91003	689.88354	23.23357	500.47958	-58.34784	1273.57117	-1012.02161	
5190	51.890	-845.15210	-14.25274	-643.73828	724.86670	-13.00408	-648.95630	-753.13702	23.41936	490.86050	689.17725	23.23355	500.47382	-59.09626	1273.28784	-1011.91730	
5191	51.900	-845.66705	-14.36828	-643.72430	724.21368	-13.04796	-649.04871	-753.91040	23.78602	490.75299	688.76001	23.21154	500.50424	-59.44363	1272.97473	-1011.79388	
5192	51.910	-846.26190	-14.49286	-643.69910	723.75909	-13.07995	-649.02936	-754.28979	23.83289	490.71863	687.94464	23.41648	500.53659	-60.09337	1272.75134	-1011.85333	
5193	51.920	-846.88916	-14.72916	-643.71295	723.32721	-13.18204	-649.03174	-754.48938	23.69978	490.77957	687.58838	23.62560	500.51834	-60.68772	1272.49731	-1011.88153	
5194	51.930	-847.41937	-14.88034	-643.81915	722.79236	-13.35991	-649.05334	-754.94592	23.66942	490.76108	687.33325	23.77260	500.49274	-61.09132	1272.21472	-1011.99323	
5195	51.940	-847.66302	-14.91492	-643.86401	722.23383	-13.45709	-649.13031	-754.89478	23.00747	490.88760	686.97833	23.88229	500.42737	-61.54639	1272.08325	-1012.25531	
5196	51.950	-848.15442	-14.87296	-643.88940	721.81189	-13.52712	-649.09741	-755.69977	23.35850	490.81979	686.55334	23.85803	500.36908	-61.87642	1271.96570	-1012.57581	
5197	51.960	-848.60071	-15.07046	-643.86584	721.41302	-13.68517	-649.16272	-756.26440	23.71117	490.58246	685.95093	23.90749	500.34985	-62.19754	1271.78589	-1012.90277	
5198	51.970	-848.66138	-15.13851	-643.52521	721.10028	-13.79531	-649.15741	-756.85437	24.15348	490.53119	685.20221	23.98670	500.51868	-62.39562	1271.69104	-1013.19611	
5199	51.980	-848.86066	-15.12000	-643.86554	720.79572	-13.88755	-649.15546	-756.90619	23.82920	490.76001	685.26410	24.13663	500.26324	-62.91096	1271.32520	-1013.87927	
5200	51.990	-849.20618	-15.06790	-644.03369	720.41376	-13.98301	-649.20691	-757.23529	24.06538	490.63211	685.03485	24.28174	500.25360	-63.69255	1271.23096	-1014.45856	
5201	52.000	-849.61700	-15.26680	-644.09955	720.12885	-14.00327	-649.26007	-757.54150	24.24042	490.56998	684.76794	24.25897	500.18924	-63.63685	1271.13135	-1014.71088	
